<svg width="34" height="32" viewBox="0 0 34 32" fill="none" xmlns="http://www.w3.org/2000/svg">
<path d="M34 4C34 1.79086 32.2091 0 30 0H0V32H30C32.2091 32 34 30.2091 34 28V4Z" fill="white"/>
<g clip-path="url(#clip0_502_4239)">
<path fill-rule="evenodd" clip-rule="evenodd" d="M13.1847 18.0203C13.443 18.1542 13.6873 18.3161 13.9129 18.5041L14.8731 17.3516C14.5637 17.0938 14.2287 16.872 13.8751 16.6887L13.1847 18.0203ZM14.5197 19.1327C14.6084 19.2472 14.6917 19.3674 14.7691 19.4931L15.0021 19.8717L16.2796 19.0856L16.0466 18.707C15.9409 18.5352 15.8269 18.3707 15.7053 18.2139L14.5197 19.1327ZM11.5055 17.5691C11.7988 17.5827 12.0884 17.6282 12.3693 17.7037L12.7587 16.2551C12.374 16.1517 11.9772 16.0894 11.5749 16.0707L11.5055 17.5691ZM15.4681 20.6289L15.701 21.0075C15.8049 21.1763 15.9148 21.3407 16.0305 21.5004L17.2454 20.6206C17.1517 20.4912 17.0627 20.3581 16.9785 20.2213L16.7455 19.8427L15.4681 20.6289ZM16.7956 22.4053C17.073 22.6874 17.3711 22.9482 17.6876 23.1856L18.5877 21.9857C18.3314 21.7934 18.0898 21.5821 17.8652 21.3536L16.7956 22.4053Z" fill="#1981DC"/>
<path fill-rule="evenodd" clip-rule="evenodd" d="M6 10C6 12.2091 10 18 10 18L10.2011 17.7033L10.6335 17.6235L10.555 17.1681C11.6536 15.4849 14 11.692 14 10C14 7.79086 12.2091 6 10 6C7.79086 6 6 7.79086 6 10ZM10 12C9.05323 12 8.28571 11.1941 8.28571 10.2C8.28571 9.20589 9.05323 8.4 10 8.4C10.9468 8.4 11.7143 9.20589 11.7143 10.2C11.7143 11.1941 10.9468 12 10 12Z" fill="#1981DC"/>
<path fill-rule="evenodd" clip-rule="evenodd" d="M22 26C22 26 26 20.2091 26 18C26 15.7909 24.2091 14 22 14C19.7909 14 18 15.7909 18 18C18 19.0936 18.9803 21.0651 19.9703 22.7772C19.7764 22.691 19.5837 22.603 19.3966 22.5025L18.6862 23.8236C18.8599 23.917 19.0375 24.0041 19.2186 24.0846L19.8378 24.3598L20.2954 23.3302C20.6026 23.8444 20.9002 24.3209 21.1585 24.7248L21.0761 24.9102L21.359 25.036C21.7429 25.6277 22 26 22 26ZM22 20C21.0532 20 20.2857 19.1941 20.2857 18.2C20.2857 17.2059 21.0532 16.4 22 16.4C22.9468 16.4 23.7143 17.2059 23.7143 18.2C23.7143 19.1941 22.9468 20 22 20Z" fill="#1981DC"/>
</g>
<defs>
<clipPath id="clip0_502_4239">
<rect width="20" height="20" fill="white" transform="matrix(-1 0 0 1 26 6)"/>
</clipPath>
</defs>
</svg>
